<?xml version="1.0" standalone="no"?>
<!DOCTYPE svg PUBLIC "-//W3C//DTD SVG 20010904//EN"
 "http://www.w3.org/TR/2001/REC-SVG-20010904/DTD/svg10.dtd">
<svg version="1.0" xmlns="http://www.w3.org/2000/svg"
 width="512.000000pt" height="512.000000pt" viewBox="0 0 512.000000 512.000000"
 preserveAspectRatio="xMidYMid meet">

<g transform="translate(0.000000,512.000000) scale(0.100000,-0.100000)"
fill="#000000" stroke="none">
<path d="M2330 5110 c-1022 -106 -1865 -775 -2185 -1733 -96 -286 -130 -498
-129 -812 0 -306 31 -513 119 -785 292 -904 1053 -1564 1995 -1730 851 -150
1760 161 2326 798 357 401 568 860 646 1407 16 117 16 503 0 620 -102 717
-449 1316 -1005 1734 -334 250 -747 421 -1177 486 -124 19 -469 27 -590 15z
m1840 -642 c64 -20 132 -70 176 -131 56 -75 77 -147 72 -241 -12 -220 -207
-374 -426 -336 -124 21 -216 92 -269 205 -24 52 -28 72 -28 155 0 83 3 102 27
151 85 172 269 253 448 197z m-1785 -1199 c159 -20 319 -91 446 -200 l69 -60
0 101 0 100 303 -2 302 -3 3 -1087 2 -1088 -305 0 -305 0 0 101 0 102 -73 -69
c-210 -199 -532 -257 -844 -150 -263 90 -507 353 -612 661 -47 140 -62 227
-68 395 -4 119 -2 180 12 264 60 384 273 699 575 851 81 41 152 63 255 80 103
17 131 17 240 4z m1983 -1151 l2 -1088 -315 0 -315 0 0 1083 c0 596 3 1087 7
1090 4 4 144 6 312 5 l306 -3 3 -1087z m-3437 -402 c111 -26 216 -114 267
-224 23 -49 27 -70 27 -153 0 -90 -2 -99 -38 -171 -122 -248 -434 -302 -628
-108 -157 157 -152 413 9 561 63 58 92 74 164 93 67 19 128 19 199 2z"/>
<path d="M2350 2719 c-164 -32 -329 -196 -391 -389 -30 -93 -37 -263 -14 -364
33 -152 139 -311 255 -386 136 -88 330 -93 468 -13 81 47 173 148 219 243 56
116 68 172 67 320 0 109 -4 135 -28 204 -36 104 -67 156 -145 238 -117 125
-273 178 -431 147z"/>
</g>
</svg>
